<svg id="Layer_1" data-name="Layer 1" xmlns="http://www.w3.org/2000/svg" viewBox="0 0 374.12 241.32"><defs><style>.cls-1{isolation:isolate;}</style></defs><title>OnepageArtboard 1 副本 4</title><path d="M187.21,36.18,175.66,70.24l-.1.05L131.44,92.05l34.06,11.56,21.82,44.22,11.57-34,.11-.05L243.12,92,209.05,80.43ZM165.45,99.61l-24.11-8.17.54-.26L174,75.35l-8.28,24.36Zm22.43-53.53,17.28,35-35,17.27ZM186.67,138l-16.06-32.57,24.31,8.2Zm46-45.1-35.48,17.51-25.4-8.61.55-.26L207.82,84l25.4,8.61Z"/><polygon class="cls-1" points="101.68 189.94 121.67 189.94 121.67 187.44 101.68 187.44 101.68 176.27 124.12 176.27 124.12 173.79 99.18 173.79 99.18 203.58 126.54 203.58 126.54 201.1 101.68 201.1 101.68 189.94"/><path class="cls-1" d="M244.17,203.37h2.89l3.77-7.32h17.79l3.76,7.32h2.89l-15.55-30.19Zm8-9.82,7.6-14.8,7.61,14.8Z"/><polygon class="cls-1" points="215.94 173.85 213.41 173.85 213.41 203.04 238.55 203.04 238.55 200.59 215.94 200.59 215.94 173.85"/><polygon class="cls-1" points="86.08 198.57 60.99 172.02 60.99 203.04 63.52 203.04 63.52 178.28 88.58 204.84 88.58 173.85 86.08 173.85 86.08 198.57"/><path class="cls-1" d="M161,187.85a6.06,6.06,0,0,0,1.37-3.82v-3.71a6.59,6.59,0,0,0-4.62-6.24l-.15-.05a15.92,15.92,0,0,0-4.95-.78H136.93v30.38h18a15.87,15.87,0,0,0,4.92-.77l.18-.06a6.58,6.58,0,0,0,4.62-6.21v-2.71A7.31,7.31,0,0,0,161,187.85Zm-21.35-12h13a13.15,13.15,0,0,1,4.1.64l.15.05a4,4,0,0,1,2.79,3.74V184a3.5,3.5,0,0,1-2,3.12h-18.1V175.86ZM162,196.56a3.93,3.93,0,0,1-2.79,3.74l-.15,0a12.89,12.89,0,0,1-4.1.65H139.61V189.52H157.9a4.75,4.75,0,0,1,4.1,4.41Z"/><path class="cls-1" d="M309.8,194.19a7,7,0,0,0-4.2-6.19l-.29-.1a15.46,15.46,0,0,0-4.74-.75h-9.49a13.56,13.56,0,0,1-4-.64,3.59,3.59,0,0,1-2.58-3.43V180.5a3.6,3.6,0,0,1,2.6-3.43,12.32,12.32,0,0,1,4-.64h15.39v-2.56H291.08a15.07,15.07,0,0,0-4.82.78,6.16,6.16,0,0,0-4.41,5.85v2.58a6.13,6.13,0,0,0,4.38,5.85,15.39,15.39,0,0,0,4.85.78h9.49a12.4,12.4,0,0,1,4,.64,4.44,4.44,0,0,1,2.63,3.89v1.65a4.48,4.48,0,0,1-2.68,4,12.7,12.7,0,0,1-3.92.62H283.14V203h17.43a15.8,15.8,0,0,0,4.77-.75l.26-.1a7,7,0,0,0,4.17-6.21Z"/><path class="cls-1" d="M199.23,191.64a9.86,9.86,0,0,1-10,9.38h-1.88a9.84,9.84,0,0,1-10-9.33V173.25h-2.66v18.49a12.52,12.52,0,0,0,12.61,12h1.91a12.52,12.52,0,0,0,12.61-12V173.28H199.2v18.36Z"/></svg>