<svg id="Layer_1" data-name="Layer 1" xmlns="http://www.w3.org/2000/svg" viewBox="0 0 337.44 76.83"><defs><style>.cls-1{opacity:0.9;}</style></defs><title>Onepage画板 4</title><polygon class="cls-1" points="124.85 53.72 124.85 23.63 150.02 23.63 150.02 26.15 127.37 26.15 127.37 37.42 147.56 37.42 147.56 39.93 127.37 39.93 127.37 51.2 152.48 51.2 152.48 53.72 124.85 53.72"/><polygon class="cls-1" points="152.21 51.48 152.21 53.44 125.13 53.44 125.13 23.91 149.74 23.91 149.74 25.87 127.1 25.87 127.1 37.69 147.28 37.69 147.28 39.66 127.1 39.66 127.1 51.48 152.21 51.48"/><path class="cls-1" d="M37.6,0,29.81,23l-.07,0L0,37.67l23,7.79L37.67,75.27l7.79-23,.06,0L75.27,37.6l-23-7.79ZM22.92,42.75,6.66,37.23,7,37.05,28.65,26.39,23.08,42.8ZM38,6.66,49.68,30.27,26.08,41.91Zm-.81,62-10.83-22L42.8,52.2Zm31-30.39L44.33,50,27.21,44.2l.36-.18L51.48,32.23,68.61,38Z"/><path class="cls-1" d="M299.7,53.49l-3.81-7.39h-18l-3.81,7.39h-2.9L286.91,23,302.6,53.49Zm-5.11-9.92-7.68-14.93-7.68,14.93Z"/><polygon class="cls-1" points="240.16 53.15 240.16 23.68 242.7 23.68 242.7 50.69 265.52 50.69 265.52 53.15 240.16 53.15"/><polygon class="cls-1" points="88.86 28.17 88.86 53.15 86.32 53.15 86.32 21.84 111.63 48.66 111.63 23.68 114.17 23.68 114.17 54.99 88.86 28.17"/><path class="cls-1" d="M187.22,37.84A6.31,6.31,0,0,0,188.61,34V30.22a6.65,6.65,0,0,0-4.67-6.3l-.16-.05a16.26,16.26,0,0,0-5-.78H163V53.75h18.19a16,16,0,0,0,5-.79l.19-.05A6.63,6.63,0,0,0,191,46.62V43.9A7.33,7.33,0,0,0,187.22,37.84ZM165.66,25.73h13.13a13.52,13.52,0,0,1,4.15.65l.16.05a4,4,0,0,1,2.81,3.79V34a3.55,3.55,0,0,1-2,3.14H165.66Zm18.45,13.79A4.81,4.81,0,0,1,188.26,44v2.66a4,4,0,0,1-2.81,3.77l-.16.06a13,13,0,0,1-4.14.65H165.66V39.52Z"/><path class="cls-1" d="M310.53,53.12V50.53h17.6a12.53,12.53,0,0,0,3.94-.62,4.5,4.5,0,0,0,2.72-4V44.27a4.47,4.47,0,0,0-2.65-3.92,13,13,0,0,0-4-.64h-9.58a15.75,15.75,0,0,1-4.9-.79A6.19,6.19,0,0,1,309.23,33v-2.6a6.2,6.2,0,0,1,4.45-5.91,15.37,15.37,0,0,1,4.87-.78H334.1V26.3H318.55a12.85,12.85,0,0,0-4,.65,3.65,3.65,0,0,0-2.62,3.46V33a3.62,3.62,0,0,0,2.59,3.46,13,13,0,0,0,4.07.66h9.58a15.55,15.55,0,0,1,4.78.75l.28.1a7.05,7.05,0,0,1,4.25,6.26V46a7.08,7.08,0,0,1-4.23,6.28l-.27.1a15.51,15.51,0,0,1-4.81.77Z"/><path class="cls-1" d="M213.88,53.79a12.63,12.63,0,0,1-12.74-12.06V23.07h2.68V41.69a9.94,9.94,0,0,0,10.07,9.43h1.89a10,10,0,0,0,10.07-9.47V23.07h2.67V41.69a12.62,12.62,0,0,1-12.72,12.1Z"/></svg>